M48
; DRILL file {KiCad 9.0.8} date 2026-03-20T22:49:07+0900
; FORMAT={-:-/ absolute / metric / decimal}
; #@! TF.CreationDate,2026-03-20T22:49:07+09:00
; #@! TF.GenerationSoftware,Kicad,Pcbnew,9.0.8
; #@! TF.FileFunction,Plated,1,2,PTH
FMAT,2
METRIC
; #@! TA.AperFunction,Plated,PTH,ComponentDrill
T1C0.750
; #@! TA.AperFunction,Plated,PTH,ComponentDrill
T2C0.800
; #@! TA.AperFunction,Plated,PTH,ComponentDrill
T3C1.100
; #@! TA.AperFunction,Plated,PTH,ComponentDrill
T4C1.300
%
G90
G05
T1
X119.38Y-52.07
X119.38Y-59.52
X119.38Y-67.14
X119.38Y-74.93
X119.38Y-82.55
X119.38Y-90.17
X119.38Y-99.06
X119.38Y-106.68
X119.38Y-114.3
X119.38Y-121.92
X119.38Y-129.54
X119.38Y-137.16
X120.65Y-52.07
X120.65Y-59.52
X120.65Y-67.14
X120.65Y-74.93
X120.65Y-82.55
X120.65Y-90.17
X120.65Y-99.06
X120.65Y-106.68
X120.65Y-114.3
X120.65Y-121.92
X120.65Y-129.54
X120.65Y-137.16
X121.92Y-52.07
X121.92Y-59.52
X121.92Y-67.14
X121.92Y-74.93
X121.92Y-82.55
X121.92Y-90.17
X121.92Y-99.06
X121.92Y-106.68
X121.92Y-114.3
X121.92Y-121.92
X121.92Y-129.54
X121.92Y-137.16
T2
X106.68Y-52.07
X106.68Y-55.88
X106.68Y-59.52
X106.68Y-63.33
X106.68Y-67.14
X106.68Y-70.95
X106.68Y-74.93
X106.68Y-78.74
X106.68Y-82.55
X106.68Y-86.36
X106.68Y-90.17
X106.68Y-93.98
X114.3Y-52.07
X114.3Y-55.88
X114.3Y-59.52
X114.3Y-63.33
X114.3Y-67.14
X114.3Y-70.95
X114.3Y-74.93
X114.3Y-78.74
X114.3Y-82.55
X114.3Y-86.36
X114.3Y-90.17
X114.3Y-93.98
X127.0Y-52.07
X127.0Y-55.88
X127.0Y-59.52
X127.0Y-63.33
X127.0Y-67.14
X127.0Y-70.95
X127.0Y-74.93
X127.0Y-78.74
X127.0Y-82.55
X127.0Y-86.36
X127.0Y-90.17
X127.0Y-93.98
X127.0Y-99.06
X127.0Y-102.87
X127.0Y-106.68
X127.0Y-110.49
X127.0Y-114.3
X127.0Y-118.11
X127.0Y-121.92
X127.0Y-125.73
X127.0Y-129.54
X127.0Y-133.35
X127.0Y-137.16
X127.0Y-140.97
X134.62Y-52.07
X134.62Y-55.88
X134.62Y-59.52
X134.62Y-63.33
X134.62Y-67.14
X134.62Y-70.95
X134.62Y-74.93
X134.62Y-78.74
X134.62Y-82.55
X134.62Y-86.36
X134.62Y-90.17
X134.62Y-93.98
X134.62Y-99.06
X134.62Y-102.87
X134.62Y-106.68
X134.62Y-110.49
X134.62Y-114.3
X134.62Y-118.11
X134.62Y-121.92
X134.62Y-125.73
X134.62Y-129.54
X134.62Y-133.35
X134.62Y-137.16
X134.62Y-140.97
X140.966Y-114.297
X140.966Y-116.837
X140.966Y-119.377
X140.97Y-66.04
X140.97Y-68.58
X140.97Y-71.12
X140.97Y-73.66
X140.97Y-76.2
X140.97Y-78.74
X140.97Y-81.28
X140.97Y-83.82
X140.97Y-86.36
X140.97Y-88.9
X140.97Y-91.44
X140.97Y-93.98
X140.97Y-96.52
X140.97Y-99.06
X140.97Y-101.6
X140.97Y-104.14
X140.97Y-106.68
X140.97Y-109.22
X140.97Y-111.76
X166.37Y-66.04
X166.37Y-68.58
X166.37Y-71.12
X166.37Y-73.66
X166.37Y-76.2
X166.37Y-78.74
X166.37Y-81.28
X166.37Y-83.82
X166.37Y-86.36
X166.37Y-88.9
X166.37Y-91.44
X166.37Y-93.98
X166.37Y-96.52
X166.37Y-99.06
X166.37Y-101.6
X166.37Y-104.14
X166.37Y-106.68
X166.37Y-109.22
X166.37Y-111.76
X166.37Y-114.3
X166.37Y-116.84
X166.37Y-119.38
X173.99Y-81.28
X173.99Y-86.36
X173.99Y-93.98
X173.99Y-99.06
X177.8Y-105.41
X177.8Y-110.49
X177.8Y-118.11
X177.8Y-123.19
X180.34Y-107.95
X180.34Y-120.65
X181.61Y-81.28
X181.61Y-86.36
X181.61Y-93.98
X181.61Y-99.06
T3
X114.3Y-125.73
X114.3Y-135.89
T4
X96.52Y-59.69
X96.52Y-64.77
X96.52Y-69.85
X96.52Y-74.93
X96.52Y-80.01
X96.52Y-85.09
X96.52Y-95.25
X96.52Y-100.33
X96.52Y-105.41
X96.52Y-110.49
X96.52Y-115.57
X96.52Y-120.65
X96.692Y-130.81
X96.692Y-135.89
X191.77Y-62.23
X191.77Y-67.31
X191.77Y-72.39
X191.77Y-77.47
X191.77Y-88.9
X191.77Y-93.98
X191.77Y-99.06
X191.77Y-104.14
X191.77Y-115.57
X191.77Y-120.65
X191.77Y-125.73
X191.77Y-130.81
M30
