%TF.GenerationSoftware,KiCad,Pcbnew,9.0.8*%
%TF.CreationDate,2026-03-20T22:44:54+09:00*%
%TF.ProjectId,ESP32-S3-IO-DEVICE,45535033-322d-4533-932d-494f2d444556,rev?*%
%TF.SameCoordinates,Original*%
%TF.FileFunction,Soldermask,Top*%
%TF.FilePolarity,Negative*%
%FSLAX46Y46*%
G04 Gerber Fmt 4.6, Leading zero omitted, Abs format (unit mm)*
G04 Created by KiCad (PCBNEW 9.0.8) date 2026-03-20 22:44:54*
%MOMM*%
%LPD*%
G01*
G04 APERTURE LIST*
G04 Aperture macros list*
%AMRoundRect*
0 Rectangle with rounded corners*
0 $1 Rounding radius*
0 $2 $3 $4 $5 $6 $7 $8 $9 X,Y pos of 4 corners*
0 Add a 4 corners polygon primitive as box body*
4,1,4,$2,$3,$4,$5,$6,$7,$8,$9,$2,$3,0*
0 Add four circle primitives for the rounded corners*
1,1,$1+$1,$2,$3*
1,1,$1+$1,$4,$5*
1,1,$1+$1,$6,$7*
1,1,$1+$1,$8,$9*
0 Add four rect primitives between the rounded corners*
20,1,$1+$1,$2,$3,$4,$5,0*
20,1,$1+$1,$4,$5,$6,$7,0*
20,1,$1+$1,$6,$7,$8,$9,0*
20,1,$1+$1,$8,$9,$2,$3,0*%
G04 Aperture macros list end*
%ADD10RoundRect,0.250000X-0.550000X-0.550000X0.550000X-0.550000X0.550000X0.550000X-0.550000X0.550000X0*%
%ADD11C,1.600000*%
%ADD12R,1.050000X1.500000*%
%ADD13O,1.050000X1.500000*%
%ADD14R,2.000000X1.200000*%
%ADD15O,2.000000X1.200000*%
%ADD16RoundRect,0.250000X1.050000X-1.050000X1.050000X1.050000X-1.050000X1.050000X-1.050000X-1.050000X0*%
%ADD17C,2.600000*%
%ADD18RoundRect,0.250000X-1.050000X1.050000X-1.050000X-1.050000X1.050000X-1.050000X1.050000X1.050000X0*%
%ADD19RoundRect,0.249999X-0.850001X0.850001X-0.850001X-0.850001X0.850001X-0.850001X0.850001X0.850001X0*%
%ADD20C,2.200000*%
%ADD21C,1.440000*%
G04 APERTURE END LIST*
D10*
%TO.C,D4*%
X127000000Y-55880000D03*
D11*
X134620000Y-55880000D03*
%TD*%
%TO.C,R4*%
X134620000Y-110490000D03*
X127000000Y-110490000D03*
%TD*%
%TO.C,R19*%
X134620000Y-82550000D03*
X127000000Y-82550000D03*
%TD*%
D10*
%TO.C,D7*%
X127000000Y-78740000D03*
D11*
X134620000Y-78740000D03*
%TD*%
%TO.C,R3*%
X134620000Y-102870000D03*
X127000000Y-102870000D03*
%TD*%
%TO.C,R21*%
X114300000Y-52070000D03*
X106680000Y-52070000D03*
%TD*%
D12*
%TO.C,Q8*%
X121920000Y-59520000D03*
D13*
X120650000Y-59520000D03*
X119380000Y-59520000D03*
%TD*%
D11*
%TO.C,R11*%
X134620000Y-114300000D03*
X127000000Y-114300000D03*
%TD*%
D14*
%TO.C,U1*%
X140970000Y-66040000D03*
D15*
X140970000Y-68580000D03*
X140970000Y-71120000D03*
X140970000Y-73660000D03*
X140970000Y-76200000D03*
X140970000Y-78740000D03*
X140970000Y-81280000D03*
X140970000Y-83820000D03*
X140970000Y-86360000D03*
X140970000Y-88900000D03*
X140970000Y-91440000D03*
X140970000Y-93980000D03*
X140970000Y-96520000D03*
X140970000Y-99060000D03*
X140970000Y-101600000D03*
X140970000Y-104140000D03*
X140970000Y-106680000D03*
X140970000Y-109220000D03*
X140970000Y-111760000D03*
X140966320Y-114297280D03*
X140966320Y-116837280D03*
X140966320Y-119377280D03*
X166370000Y-119380000D03*
X166370000Y-116840000D03*
X166370000Y-114300000D03*
X166370000Y-111760000D03*
X166370000Y-109220000D03*
X166370000Y-106680000D03*
X166370000Y-104140000D03*
X166370000Y-101600000D03*
X166370000Y-99060000D03*
X166370000Y-96520000D03*
X166370000Y-93980000D03*
X166370000Y-91440000D03*
X166370000Y-88900000D03*
X166370000Y-86360000D03*
X166370000Y-83820000D03*
X166370000Y-81280000D03*
X166370000Y-78740000D03*
X166370000Y-76200000D03*
X166370000Y-73660000D03*
X166370000Y-71120000D03*
X166370000Y-68580000D03*
X166370000Y-66040000D03*
%TD*%
D12*
%TO.C,Q12*%
X121920000Y-90170000D03*
D13*
X120650000Y-90170000D03*
X119380000Y-90170000D03*
%TD*%
D11*
%TO.C,R14*%
X134620000Y-137160000D03*
X127000000Y-137160000D03*
%TD*%
D12*
%TO.C,Q6*%
X119380000Y-137160000D03*
D13*
X120650000Y-137160000D03*
X121920000Y-137160000D03*
%TD*%
D16*
%TO.C,J4*%
X96692500Y-135890000D03*
D17*
X96692500Y-130810000D03*
%TD*%
D11*
%TO.C,R31*%
X114300000Y-86360000D03*
X106680000Y-86360000D03*
%TD*%
%TO.C,R16*%
X134620000Y-59520000D03*
X127000000Y-59520000D03*
%TD*%
%TO.C,R22*%
X114300000Y-59520000D03*
X106680000Y-59520000D03*
%TD*%
D10*
%TO.C,D6*%
X127000000Y-70950000D03*
D11*
X134620000Y-70950000D03*
%TD*%
%TO.C,R2*%
X173990000Y-99060000D03*
X181610000Y-99060000D03*
%TD*%
%TO.C,R10*%
X134620000Y-106680000D03*
X127000000Y-106680000D03*
%TD*%
%TO.C,R7*%
X134620000Y-133350000D03*
X127000000Y-133350000D03*
%TD*%
%TO.C,R23*%
X114300000Y-67140000D03*
X106680000Y-67140000D03*
%TD*%
%TO.C,R9*%
X134620000Y-99060000D03*
X127000000Y-99060000D03*
%TD*%
D12*
%TO.C,Q7*%
X121920000Y-52070000D03*
D13*
X120650000Y-52070000D03*
X119380000Y-52070000D03*
%TD*%
D10*
%TO.C,D9*%
X127000000Y-93980000D03*
D11*
X134620000Y-93980000D03*
%TD*%
%TO.C,R29*%
X114300000Y-70950000D03*
X106680000Y-70950000D03*
%TD*%
%TO.C,R24*%
X114300000Y-74930000D03*
X106680000Y-74930000D03*
%TD*%
D10*
%TO.C,D5*%
X127000000Y-63330000D03*
D11*
X134620000Y-63330000D03*
%TD*%
D12*
%TO.C,Q5*%
X119380000Y-129540000D03*
D13*
X120650000Y-129540000D03*
X121920000Y-129540000D03*
%TD*%
D18*
%TO.C,J2*%
X191770000Y-88900000D03*
D17*
X191770000Y-93980000D03*
X191770000Y-99060000D03*
X191770000Y-104140000D03*
%TD*%
D11*
%TO.C,R25*%
X114300000Y-82550000D03*
X106680000Y-82550000D03*
%TD*%
%TO.C,R8*%
X134620000Y-140970000D03*
X127000000Y-140970000D03*
%TD*%
D19*
%TO.C,D3*%
X114300000Y-125730000D03*
D20*
X114300000Y-135890000D03*
%TD*%
D18*
%TO.C,J1*%
X191770000Y-115570000D03*
D17*
X191770000Y-120650000D03*
X191770000Y-125730000D03*
X191770000Y-130810000D03*
%TD*%
D10*
%TO.C,D1*%
X173990000Y-81280000D03*
D11*
X181610000Y-81280000D03*
%TD*%
%TO.C,R20*%
X134620000Y-90170000D03*
X127000000Y-90170000D03*
%TD*%
D12*
%TO.C,Q4*%
X119380000Y-121920000D03*
D13*
X120650000Y-121920000D03*
X121920000Y-121920000D03*
%TD*%
D11*
%TO.C,R5*%
X134620000Y-118110000D03*
X127000000Y-118110000D03*
%TD*%
%TO.C,R13*%
X134620000Y-129540000D03*
X127000000Y-129540000D03*
%TD*%
%TO.C,R27*%
X114300000Y-55880000D03*
X106680000Y-55880000D03*
%TD*%
D12*
%TO.C,Q11*%
X121920000Y-82550000D03*
D13*
X120650000Y-82550000D03*
X119380000Y-82550000D03*
%TD*%
D12*
%TO.C,Q10*%
X121920000Y-74930000D03*
D13*
X120650000Y-74930000D03*
X119380000Y-74930000D03*
%TD*%
D21*
%TO.C,RV2*%
X177800000Y-123190000D03*
X180340000Y-120650000D03*
X177800000Y-118110000D03*
%TD*%
D10*
%TO.C,D8*%
X127000000Y-86360000D03*
D11*
X134620000Y-86360000D03*
%TD*%
%TO.C,R15*%
X134620000Y-52070000D03*
X127000000Y-52070000D03*
%TD*%
%TO.C,R6*%
X134620000Y-125730000D03*
X127000000Y-125730000D03*
%TD*%
%TO.C,R1*%
X173990000Y-86360000D03*
X181610000Y-86360000D03*
%TD*%
D12*
%TO.C,Q2*%
X119380000Y-106680000D03*
D13*
X120650000Y-106680000D03*
X121920000Y-106680000D03*
%TD*%
D12*
%TO.C,Q3*%
X119380000Y-114300000D03*
D13*
X120650000Y-114300000D03*
X121920000Y-114300000D03*
%TD*%
D11*
%TO.C,R28*%
X114300000Y-63330000D03*
X106680000Y-63330000D03*
%TD*%
D10*
%TO.C,D2*%
X173990000Y-93980000D03*
D11*
X181610000Y-93980000D03*
%TD*%
D21*
%TO.C,RV1*%
X177800000Y-110490000D03*
X180340000Y-107950000D03*
X177800000Y-105410000D03*
%TD*%
D11*
%TO.C,R32*%
X114300000Y-93980000D03*
X106680000Y-93980000D03*
%TD*%
%TO.C,R18*%
X134620000Y-74930000D03*
X127000000Y-74930000D03*
%TD*%
%TO.C,R12*%
X134620000Y-121920000D03*
X127000000Y-121920000D03*
%TD*%
D16*
%TO.C,J6*%
X96520000Y-85090000D03*
D17*
X96520000Y-80010000D03*
X96520000Y-74930000D03*
X96520000Y-69850000D03*
X96520000Y-64770000D03*
X96520000Y-59690000D03*
%TD*%
D11*
%TO.C,R30*%
X114300000Y-78740000D03*
X106680000Y-78740000D03*
%TD*%
%TO.C,R17*%
X134620000Y-67140000D03*
X127000000Y-67140000D03*
%TD*%
%TO.C,R26*%
X114300000Y-90170000D03*
X106680000Y-90170000D03*
%TD*%
D18*
%TO.C,J5*%
X191770000Y-62230000D03*
D17*
X191770000Y-67310000D03*
X191770000Y-72390000D03*
X191770000Y-77470000D03*
%TD*%
D12*
%TO.C,Q9*%
X121920000Y-67140000D03*
D13*
X120650000Y-67140000D03*
X119380000Y-67140000D03*
%TD*%
D12*
%TO.C,Q1*%
X119380000Y-99060000D03*
D13*
X120650000Y-99060000D03*
X121920000Y-99060000D03*
%TD*%
D16*
%TO.C,J3*%
X96520000Y-120650000D03*
D17*
X96520000Y-115570000D03*
X96520000Y-110490000D03*
X96520000Y-105410000D03*
X96520000Y-100330000D03*
X96520000Y-95250000D03*
%TD*%
M02*
