%TF.GenerationSoftware,KiCad,Pcbnew,9.0.8*%
%TF.CreationDate,2026-03-20T22:44:53+09:00*%
%TF.ProjectId,ESP32-S3-IO-DEVICE,45535033-322d-4533-932d-494f2d444556,rev?*%
%TF.SameCoordinates,Original*%
%TF.FileFunction,Copper,L1,Top*%
%TF.FilePolarity,Positive*%
%FSLAX46Y46*%
G04 Gerber Fmt 4.6, Leading zero omitted, Abs format (unit mm)*
G04 Created by KiCad (PCBNEW 9.0.8) date 2026-03-20 22:44:53*
%MOMM*%
%LPD*%
G01*
G04 APERTURE LIST*
G04 Aperture macros list*
%AMRoundRect*
0 Rectangle with rounded corners*
0 $1 Rounding radius*
0 $2 $3 $4 $5 $6 $7 $8 $9 X,Y pos of 4 corners*
0 Add a 4 corners polygon primitive as box body*
4,1,4,$2,$3,$4,$5,$6,$7,$8,$9,$2,$3,0*
0 Add four circle primitives for the rounded corners*
1,1,$1+$1,$2,$3*
1,1,$1+$1,$4,$5*
1,1,$1+$1,$6,$7*
1,1,$1+$1,$8,$9*
0 Add four rect primitives between the rounded corners*
20,1,$1+$1,$2,$3,$4,$5,0*
20,1,$1+$1,$4,$5,$6,$7,0*
20,1,$1+$1,$6,$7,$8,$9,0*
20,1,$1+$1,$8,$9,$2,$3,0*%
G04 Aperture macros list end*
%TA.AperFunction,ComponentPad*%
%ADD10RoundRect,0.250000X-0.550000X-0.550000X0.550000X-0.550000X0.550000X0.550000X-0.550000X0.550000X0*%
%TD*%
%TA.AperFunction,ComponentPad*%
%ADD11C,1.600000*%
%TD*%
%TA.AperFunction,ComponentPad*%
%ADD12R,1.050000X1.500000*%
%TD*%
%TA.AperFunction,ComponentPad*%
%ADD13O,1.050000X1.500000*%
%TD*%
%TA.AperFunction,ComponentPad*%
%ADD14R,2.000000X1.200000*%
%TD*%
%TA.AperFunction,ComponentPad*%
%ADD15O,2.000000X1.200000*%
%TD*%
%TA.AperFunction,ComponentPad*%
%ADD16RoundRect,0.250000X1.050000X-1.050000X1.050000X1.050000X-1.050000X1.050000X-1.050000X-1.050000X0*%
%TD*%
%TA.AperFunction,ComponentPad*%
%ADD17C,2.600000*%
%TD*%
%TA.AperFunction,ComponentPad*%
%ADD18RoundRect,0.250000X-1.050000X1.050000X-1.050000X-1.050000X1.050000X-1.050000X1.050000X1.050000X0*%
%TD*%
%TA.AperFunction,ComponentPad*%
%ADD19RoundRect,0.249999X-0.850001X0.850001X-0.850001X-0.850001X0.850001X-0.850001X0.850001X0.850001X0*%
%TD*%
%TA.AperFunction,ComponentPad*%
%ADD20C,2.200000*%
%TD*%
%TA.AperFunction,ComponentPad*%
%ADD21C,1.440000*%
%TD*%
%TA.AperFunction,Conductor*%
%ADD22C,0.400000*%
%TD*%
%TA.AperFunction,Conductor*%
%ADD23C,0.800000*%
%TD*%
G04 APERTURE END LIST*
D10*
%TO.P,D4,1,K*%
%TO.N,Net-(D4-K)*%
X127000000Y-55880000D03*
D11*
%TO.P,D4,2,A*%
%TO.N,GND*%
X134620000Y-55880000D03*
%TD*%
%TO.P,R4,1*%
%TO.N,Net-(U1-GPIO11{slash}ADC2_CH0)*%
X134620000Y-110490000D03*
%TO.P,R4,2*%
%TO.N,Net-(Q2-B)*%
X127000000Y-110490000D03*
%TD*%
%TO.P,R19,1*%
%TO.N,3V3*%
X134620000Y-82550000D03*
%TO.P,R19,2*%
%TO.N,Net-(D8-K)*%
X127000000Y-82550000D03*
%TD*%
D10*
%TO.P,D7,1,K*%
%TO.N,Net-(D7-K)*%
X127000000Y-78740000D03*
D11*
%TO.P,D7,2,A*%
%TO.N,GND*%
X134620000Y-78740000D03*
%TD*%
%TO.P,R3,1*%
%TO.N,Net-(U1-GPIO10{slash}ADC1_CH9)*%
X134620000Y-102870000D03*
%TO.P,R3,2*%
%TO.N,Net-(Q1-B)*%
X127000000Y-102870000D03*
%TD*%
%TO.P,R21,1*%
%TO.N,Net-(Q7-B)*%
X114300000Y-52070000D03*
%TO.P,R21,2*%
%TO.N,Net-(J6-Pin_6)*%
X106680000Y-52070000D03*
%TD*%
D12*
%TO.P,Q8,1,E*%
%TO.N,GND*%
X121920000Y-59520000D03*
D13*
%TO.P,Q8,2,C*%
%TO.N,Net-(D5-K)*%
X120650000Y-59520000D03*
%TO.P,Q8,3,B*%
%TO.N,Net-(Q8-B)*%
X119380000Y-59520000D03*
%TD*%
D11*
%TO.P,R11,1*%
%TO.N,Net-(Q3-B)*%
X134620000Y-114300000D03*
%TO.P,R11,2*%
%TO.N,GND*%
X127000000Y-114300000D03*
%TD*%
D14*
%TO.P,U1,1,3V3*%
%TO.N,3V3*%
X140970000Y-66040000D03*
D15*
%TO.P,U1,2,3V3*%
X140970000Y-68580000D03*
%TO.P,U1,3,CHIP_PU*%
%TO.N,unconnected-(U1-CHIP_PU-Pad3)*%
X140970000Y-71120000D03*
%TO.P,U1,4,GPIO4/ADC1_CH3*%
%TO.N,Net-(D4-K)*%
X140970000Y-73660000D03*
%TO.P,U1,5,GPIO5/ADC1_CH4*%
%TO.N,Net-(D5-K)*%
X140970000Y-76200000D03*
%TO.P,U1,6,GPIO6/ADC1_CH5*%
%TO.N,Net-(D6-K)*%
X140970000Y-78740000D03*
%TO.P,U1,7,GPIO7/ADC1_CH6*%
%TO.N,Net-(D7-K)*%
X140970000Y-81280000D03*
%TO.P,U1,8,GPIO15/ADC2_CH4/32K_P*%
%TO.N,unconnected-(U1-GPIO15{slash}ADC2_CH4{slash}32K_P-Pad8)*%
X140970000Y-83820000D03*
%TO.P,U1,9,GPIO16/ADC2_CH5/32K_N*%
%TO.N,unconnected-(U1-GPIO16{slash}ADC2_CH5{slash}32K_N-Pad9)*%
X140970000Y-86360000D03*
%TO.P,U1,10,GPIO17/ADC2_CH6*%
%TO.N,Net-(U1-GPIO17{slash}ADC2_CH6)*%
X140970000Y-88900000D03*
%TO.P,U1,11,GPIO18/ADC2_CH7*%
%TO.N,unconnected-(U1-GPIO18{slash}ADC2_CH7-Pad11)*%
X140970000Y-91440000D03*
%TO.P,U1,12,GPIO8/ADC1_CH7*%
%TO.N,Net-(D8-K)*%
X140970000Y-93980000D03*
%TO.P,U1,13,GPIO3/ADC1_CH2*%
%TO.N,unconnected-(U1-GPIO3{slash}ADC1_CH2-Pad13)*%
X140970000Y-96520000D03*
%TO.P,U1,14,GPIO46*%
%TO.N,unconnected-(U1-GPIO46-Pad14)*%
X140970000Y-99060000D03*
%TO.P,U1,15,GPIO9/ADC1_CH8*%
%TO.N,Net-(D9-K)*%
X140970000Y-101600000D03*
%TO.P,U1,16,GPIO10/ADC1_CH9*%
%TO.N,Net-(U1-GPIO10{slash}ADC1_CH9)*%
X140970000Y-104140000D03*
%TO.P,U1,17,GPIO11/ADC2_CH0*%
%TO.N,Net-(U1-GPIO11{slash}ADC2_CH0)*%
X140970000Y-106680000D03*
%TO.P,U1,18,GPIO12/ADC2_CH1*%
%TO.N,Net-(U1-GPIO12{slash}ADC2_CH1)*%
X140970000Y-109220000D03*
%TO.P,U1,19,GPIO13/ADC2_CH2*%
%TO.N,Net-(U1-GPIO13{slash}ADC2_CH2)*%
X140970000Y-111760000D03*
%TO.P,U1,20,GPIO14/ADC2_CH3*%
%TO.N,Net-(U1-GPIO14{slash}ADC2_CH3)*%
X140966320Y-114297280D03*
%TO.P,U1,21,5V*%
%TO.N,5V*%
X140966320Y-116837280D03*
%TO.P,U1,22,GND*%
%TO.N,GND*%
X140966320Y-119377280D03*
%TO.P,U1,23,GND*%
X166370000Y-119380000D03*
%TO.P,U1,24,GND*%
X166370000Y-116840000D03*
%TO.P,U1,25,GPIO19/USB_D-*%
%TO.N,unconnected-(U1-GPIO19{slash}USB_D--Pad25)*%
X166370000Y-114300000D03*
%TO.P,U1,26,GPIO20/USB_D+*%
%TO.N,unconnected-(U1-GPIO20{slash}USB_D+-Pad26)*%
X166370000Y-111760000D03*
%TO.P,U1,27,GPIO21*%
%TO.N,unconnected-(U1-GPIO21-Pad27)*%
X166370000Y-109220000D03*
%TO.P,U1,28,GPIO47*%
%TO.N,unconnected-(U1-GPIO47-Pad28)*%
X166370000Y-106680000D03*
%TO.P,U1,29,GPIO48*%
%TO.N,unconnected-(U1-GPIO48-Pad29)*%
X166370000Y-104140000D03*
%TO.P,U1,30,GPIO45*%
%TO.N,unconnected-(U1-GPIO45-Pad30)*%
X166370000Y-101600000D03*
%TO.P,U1,31,GPIO0*%
%TO.N,unconnected-(U1-GPIO0-Pad31)*%
X166370000Y-99060000D03*
%TO.P,U1,32,GPIO35*%
%TO.N,unconnected-(U1-GPIO35-Pad32)*%
X166370000Y-96520000D03*
%TO.P,U1,33,GPIO36*%
%TO.N,unconnected-(U1-GPIO36-Pad33)*%
X166370000Y-93980000D03*
%TO.P,U1,34,GPIO37*%
%TO.N,unconnected-(U1-GPIO37-Pad34)*%
X166370000Y-91440000D03*
%TO.P,U1,35,GPIO38*%
%TO.N,Net-(J1-Pin_1)*%
X166370000Y-88900000D03*
%TO.P,U1,36,GPIO39/MTCK*%
%TO.N,Net-(J1-Pin_2)*%
X166370000Y-86360000D03*
%TO.P,U1,37,GPIO40/MTDO*%
%TO.N,unconnected-(U1-GPIO40{slash}MTDO-Pad37)*%
X166370000Y-83820000D03*
%TO.P,U1,38,GPIO41/MTDI*%
%TO.N,unconnected-(U1-GPIO41{slash}MTDI-Pad38)*%
X166370000Y-81280000D03*
%TO.P,U1,39,GPIO42/MTMS*%
%TO.N,unconnected-(U1-GPIO42{slash}MTMS-Pad39)*%
X166370000Y-78740000D03*
%TO.P,U1,40,GPIO2/ADC1_CH1*%
%TO.N,Net-(D2-K)*%
X166370000Y-76200000D03*
%TO.P,U1,41,GPIO1/ADC1_CH0*%
%TO.N,Net-(D1-K)*%
X166370000Y-73660000D03*
%TO.P,U1,42,GPIO44/U0RXD*%
%TO.N,unconnected-(U1-GPIO44{slash}U0RXD-Pad42)*%
X166370000Y-71120000D03*
%TO.P,U1,43,GPIO43/U0TXD*%
%TO.N,unconnected-(U1-GPIO43{slash}U0TXD-Pad43)*%
X166370000Y-68580000D03*
%TO.P,U1,44,GND*%
%TO.N,GND*%
X166370000Y-66040000D03*
%TD*%
D12*
%TO.P,Q12,1,E*%
%TO.N,GND*%
X121920000Y-90170000D03*
D13*
%TO.P,Q12,2,C*%
%TO.N,Net-(D9-K)*%
X120650000Y-90170000D03*
%TO.P,Q12,3,B*%
%TO.N,Net-(Q12-B)*%
X119380000Y-90170000D03*
%TD*%
D11*
%TO.P,R14,1*%
%TO.N,Net-(Q6-B)*%
X134620000Y-137160000D03*
%TO.P,R14,2*%
%TO.N,GND*%
X127000000Y-137160000D03*
%TD*%
D12*
%TO.P,Q6,1,E*%
%TO.N,GND*%
X119380000Y-137160000D03*
D13*
%TO.P,Q6,2,C*%
%TO.N,Net-(J3-Pin_1)*%
X120650000Y-137160000D03*
%TO.P,Q6,3,B*%
%TO.N,Net-(Q6-B)*%
X121920000Y-137160000D03*
%TD*%
D16*
%TO.P,J4,1,Pin_1*%
%TO.N,Net-(D3-A)*%
X96692500Y-135890000D03*
D17*
%TO.P,J4,2,Pin_2*%
%TO.N,GND*%
X96692500Y-130810000D03*
%TD*%
D11*
%TO.P,R31,1*%
%TO.N,COM+*%
X114300000Y-86360000D03*
%TO.P,R31,2*%
%TO.N,Net-(J6-Pin_2)*%
X106680000Y-86360000D03*
%TD*%
%TO.P,R16,1*%
%TO.N,3V3*%
X134620000Y-59520000D03*
%TO.P,R16,2*%
%TO.N,Net-(D5-K)*%
X127000000Y-59520000D03*
%TD*%
%TO.P,R22,1*%
%TO.N,Net-(Q8-B)*%
X114300000Y-59520000D03*
%TO.P,R22,2*%
%TO.N,Net-(J6-Pin_5)*%
X106680000Y-59520000D03*
%TD*%
D10*
%TO.P,D6,1,K*%
%TO.N,Net-(D6-K)*%
X127000000Y-70950000D03*
D11*
%TO.P,D6,2,A*%
%TO.N,GND*%
X134620000Y-70950000D03*
%TD*%
%TO.P,R2,1*%
%TO.N,Net-(R2-Pad1)*%
X173990000Y-99060000D03*
%TO.P,R2,2*%
%TO.N,Net-(D2-K)*%
X181610000Y-99060000D03*
%TD*%
%TO.P,R10,1*%
%TO.N,Net-(Q2-B)*%
X134620000Y-106680000D03*
%TO.P,R10,2*%
%TO.N,GND*%
X127000000Y-106680000D03*
%TD*%
%TO.P,R7,1*%
%TO.N,Net-(U1-GPIO14{slash}ADC2_CH3)*%
X134620000Y-133350000D03*
%TO.P,R7,2*%
%TO.N,Net-(Q5-B)*%
X127000000Y-133350000D03*
%TD*%
%TO.P,R23,1*%
%TO.N,Net-(Q9-B)*%
X114300000Y-67140000D03*
%TO.P,R23,2*%
%TO.N,Net-(J6-Pin_4)*%
X106680000Y-67140000D03*
%TD*%
%TO.P,R9,1*%
%TO.N,Net-(Q1-B)*%
X134620000Y-99060000D03*
%TO.P,R9,2*%
%TO.N,GND*%
X127000000Y-99060000D03*
%TD*%
D12*
%TO.P,Q7,1,E*%
%TO.N,GND*%
X121920000Y-52070000D03*
D13*
%TO.P,Q7,2,C*%
%TO.N,Net-(D4-K)*%
X120650000Y-52070000D03*
%TO.P,Q7,3,B*%
%TO.N,Net-(Q7-B)*%
X119380000Y-52070000D03*
%TD*%
D10*
%TO.P,D9,1,K*%
%TO.N,Net-(D9-K)*%
X127000000Y-93980000D03*
D11*
%TO.P,D9,2,A*%
%TO.N,GND*%
X134620000Y-93980000D03*
%TD*%
%TO.P,R29,1*%
%TO.N,COM+*%
X114300000Y-70950000D03*
%TO.P,R29,2*%
%TO.N,Net-(J6-Pin_4)*%
X106680000Y-70950000D03*
%TD*%
%TO.P,R24,1*%
%TO.N,Net-(Q10-B)*%
X114300000Y-74930000D03*
%TO.P,R24,2*%
%TO.N,Net-(J6-Pin_3)*%
X106680000Y-74930000D03*
%TD*%
D10*
%TO.P,D5,1,K*%
%TO.N,Net-(D5-K)*%
X127000000Y-63330000D03*
D11*
%TO.P,D5,2,A*%
%TO.N,GND*%
X134620000Y-63330000D03*
%TD*%
D12*
%TO.P,Q5,1,E*%
%TO.N,GND*%
X119380000Y-129540000D03*
D13*
%TO.P,Q5,2,C*%
%TO.N,Net-(J3-Pin_2)*%
X120650000Y-129540000D03*
%TO.P,Q5,3,B*%
%TO.N,Net-(Q5-B)*%
X121920000Y-129540000D03*
%TD*%
D18*
%TO.P,J2,1,Pin_1*%
%TO.N,Net-(J2-Pin_1)*%
X191770000Y-88900000D03*
D17*
%TO.P,J2,2,Pin_2*%
%TO.N,GND*%
X191770000Y-93980000D03*
%TO.P,J2,3,Pin_3*%
%TO.N,Net-(J2-Pin_3)*%
X191770000Y-99060000D03*
%TO.P,J2,4,Pin_4*%
%TO.N,GND*%
X191770000Y-104140000D03*
%TD*%
D11*
%TO.P,R25,1*%
%TO.N,Net-(Q11-B)*%
X114300000Y-82550000D03*
%TO.P,R25,2*%
%TO.N,Net-(J6-Pin_2)*%
X106680000Y-82550000D03*
%TD*%
%TO.P,R8,1*%
%TO.N,Net-(U1-GPIO17{slash}ADC2_CH6)*%
X134620000Y-140970000D03*
%TO.P,R8,2*%
%TO.N,Net-(Q6-B)*%
X127000000Y-140970000D03*
%TD*%
D19*
%TO.P,D3,1,K*%
%TO.N,COM+*%
X114300000Y-125730000D03*
D20*
%TO.P,D3,2,A*%
%TO.N,Net-(D3-A)*%
X114300000Y-135890000D03*
%TD*%
D18*
%TO.P,J1,1,Pin_1*%
%TO.N,Net-(J1-Pin_1)*%
X191770000Y-115570000D03*
D17*
%TO.P,J1,2,Pin_2*%
%TO.N,Net-(J1-Pin_2)*%
X191770000Y-120650000D03*
%TO.P,J1,3,Pin_3*%
%TO.N,GND*%
X191770000Y-125730000D03*
%TO.P,J1,4,Pin_4*%
X191770000Y-130810000D03*
%TD*%
D10*
%TO.P,D1,1,K*%
%TO.N,Net-(D1-K)*%
X173990000Y-81280000D03*
D11*
%TO.P,D1,2,A*%
%TO.N,GND*%
X181610000Y-81280000D03*
%TD*%
%TO.P,R20,1*%
%TO.N,3V3*%
X134620000Y-90170000D03*
%TO.P,R20,2*%
%TO.N,Net-(D9-K)*%
X127000000Y-90170000D03*
%TD*%
D12*
%TO.P,Q4,1,E*%
%TO.N,GND*%
X119380000Y-121920000D03*
D13*
%TO.P,Q4,2,C*%
%TO.N,Net-(J3-Pin_3)*%
X120650000Y-121920000D03*
%TO.P,Q4,3,B*%
%TO.N,Net-(Q4-B)*%
X121920000Y-121920000D03*
%TD*%
D11*
%TO.P,R5,1*%
%TO.N,Net-(U1-GPIO12{slash}ADC2_CH1)*%
X134620000Y-118110000D03*
%TO.P,R5,2*%
%TO.N,Net-(Q3-B)*%
X127000000Y-118110000D03*
%TD*%
%TO.P,R13,1*%
%TO.N,Net-(Q5-B)*%
X134620000Y-129540000D03*
%TO.P,R13,2*%
%TO.N,GND*%
X127000000Y-129540000D03*
%TD*%
%TO.P,R27,1*%
%TO.N,COM+*%
X114300000Y-55880000D03*
%TO.P,R27,2*%
%TO.N,Net-(J6-Pin_6)*%
X106680000Y-55880000D03*
%TD*%
D12*
%TO.P,Q11,1,E*%
%TO.N,GND*%
X121920000Y-82550000D03*
D13*
%TO.P,Q11,2,C*%
%TO.N,Net-(D8-K)*%
X120650000Y-82550000D03*
%TO.P,Q11,3,B*%
%TO.N,Net-(Q11-B)*%
X119380000Y-82550000D03*
%TD*%
D12*
%TO.P,Q10,1,E*%
%TO.N,GND*%
X121920000Y-74930000D03*
D13*
%TO.P,Q10,2,C*%
%TO.N,Net-(D7-K)*%
X120650000Y-74930000D03*
%TO.P,Q10,3,B*%
%TO.N,Net-(Q10-B)*%
X119380000Y-74930000D03*
%TD*%
D21*
%TO.P,RV2,1,1*%
%TO.N,Net-(J2-Pin_3)*%
X177800000Y-123190000D03*
%TO.P,RV2,2,2*%
%TO.N,Net-(R2-Pad1)*%
X180340000Y-120650000D03*
%TO.P,RV2,3,3*%
%TO.N,GND*%
X177800000Y-118110000D03*
%TD*%
D10*
%TO.P,D8,1,K*%
%TO.N,Net-(D8-K)*%
X127000000Y-86360000D03*
D11*
%TO.P,D8,2,A*%
%TO.N,GND*%
X134620000Y-86360000D03*
%TD*%
%TO.P,R15,1*%
%TO.N,3V3*%
X134620000Y-52070000D03*
%TO.P,R15,2*%
%TO.N,Net-(D4-K)*%
X127000000Y-52070000D03*
%TD*%
%TO.P,R6,1*%
%TO.N,Net-(U1-GPIO13{slash}ADC2_CH2)*%
X134620000Y-125730000D03*
%TO.P,R6,2*%
%TO.N,Net-(Q4-B)*%
X127000000Y-125730000D03*
%TD*%
%TO.P,R1,1*%
%TO.N,Net-(R1-Pad1)*%
X173990000Y-86360000D03*
%TO.P,R1,2*%
%TO.N,Net-(D1-K)*%
X181610000Y-86360000D03*
%TD*%
D12*
%TO.P,Q2,1,E*%
%TO.N,GND*%
X119380000Y-106680000D03*
D13*
%TO.P,Q2,2,C*%
%TO.N,Net-(J3-Pin_5)*%
X120650000Y-106680000D03*
%TO.P,Q2,3,B*%
%TO.N,Net-(Q2-B)*%
X121920000Y-106680000D03*
%TD*%
D12*
%TO.P,Q3,1,E*%
%TO.N,GND*%
X119380000Y-114300000D03*
D13*
%TO.P,Q3,2,C*%
%TO.N,Net-(J3-Pin_4)*%
X120650000Y-114300000D03*
%TO.P,Q3,3,B*%
%TO.N,Net-(Q3-B)*%
X121920000Y-114300000D03*
%TD*%
D11*
%TO.P,R28,1*%
%TO.N,COM+*%
X114300000Y-63330000D03*
%TO.P,R28,2*%
%TO.N,Net-(J6-Pin_5)*%
X106680000Y-63330000D03*
%TD*%
D10*
%TO.P,D2,1,K*%
%TO.N,Net-(D2-K)*%
X173990000Y-93980000D03*
D11*
%TO.P,D2,2,A*%
%TO.N,GND*%
X181610000Y-93980000D03*
%TD*%
D21*
%TO.P,RV1,1,1*%
%TO.N,Net-(J2-Pin_1)*%
X177800000Y-110490000D03*
%TO.P,RV1,2,2*%
%TO.N,Net-(R1-Pad1)*%
X180340000Y-107950000D03*
%TO.P,RV1,3,3*%
%TO.N,GND*%
X177800000Y-105410000D03*
%TD*%
D11*
%TO.P,R32,1*%
%TO.N,COM+*%
X114300000Y-93980000D03*
%TO.P,R32,2*%
%TO.N,Net-(J6-Pin_1)*%
X106680000Y-93980000D03*
%TD*%
%TO.P,R18,1*%
%TO.N,3V3*%
X134620000Y-74930000D03*
%TO.P,R18,2*%
%TO.N,Net-(D7-K)*%
X127000000Y-74930000D03*
%TD*%
%TO.P,R12,1*%
%TO.N,Net-(Q4-B)*%
X134620000Y-121920000D03*
%TO.P,R12,2*%
%TO.N,GND*%
X127000000Y-121920000D03*
%TD*%
D16*
%TO.P,J6,1,Pin_1*%
%TO.N,Net-(J6-Pin_1)*%
X96520000Y-85090000D03*
D17*
%TO.P,J6,2,Pin_2*%
%TO.N,Net-(J6-Pin_2)*%
X96520000Y-80010000D03*
%TO.P,J6,3,Pin_3*%
%TO.N,Net-(J6-Pin_3)*%
X96520000Y-74930000D03*
%TO.P,J6,4,Pin_4*%
%TO.N,Net-(J6-Pin_4)*%
X96520000Y-69850000D03*
%TO.P,J6,5,Pin_5*%
%TO.N,Net-(J6-Pin_5)*%
X96520000Y-64770000D03*
%TO.P,J6,6,Pin_6*%
%TO.N,Net-(J6-Pin_6)*%
X96520000Y-59690000D03*
%TD*%
D11*
%TO.P,R30,1*%
%TO.N,COM+*%
X114300000Y-78740000D03*
%TO.P,R30,2*%
%TO.N,Net-(J6-Pin_3)*%
X106680000Y-78740000D03*
%TD*%
%TO.P,R17,1*%
%TO.N,3V3*%
X134620000Y-67140000D03*
%TO.P,R17,2*%
%TO.N,Net-(D6-K)*%
X127000000Y-67140000D03*
%TD*%
%TO.P,R26,1*%
%TO.N,Net-(Q12-B)*%
X114300000Y-90170000D03*
%TO.P,R26,2*%
%TO.N,Net-(J6-Pin_1)*%
X106680000Y-90170000D03*
%TD*%
D18*
%TO.P,J5,1,Pin_1*%
%TO.N,5V*%
X191770000Y-62230000D03*
D17*
%TO.P,J5,2,Pin_2*%
%TO.N,3V3*%
X191770000Y-67310000D03*
%TO.P,J5,3,Pin_3*%
%TO.N,GND*%
X191770000Y-72390000D03*
%TO.P,J5,4,Pin_4*%
X191770000Y-77470000D03*
%TD*%
D12*
%TO.P,Q9,1,E*%
%TO.N,GND*%
X121920000Y-67140000D03*
D13*
%TO.P,Q9,2,C*%
%TO.N,Net-(D6-K)*%
X120650000Y-67140000D03*
%TO.P,Q9,3,B*%
%TO.N,Net-(Q9-B)*%
X119380000Y-67140000D03*
%TD*%
D12*
%TO.P,Q1,1,E*%
%TO.N,GND*%
X119380000Y-99060000D03*
D13*
%TO.P,Q1,2,C*%
%TO.N,Net-(J3-Pin_6)*%
X120650000Y-99060000D03*
%TO.P,Q1,3,B*%
%TO.N,Net-(Q1-B)*%
X121920000Y-99060000D03*
%TD*%
D16*
%TO.P,J3,1,Pin_1*%
%TO.N,Net-(J3-Pin_1)*%
X96520000Y-120650000D03*
D17*
%TO.P,J3,2,Pin_2*%
%TO.N,Net-(J3-Pin_2)*%
X96520000Y-115570000D03*
%TO.P,J3,3,Pin_3*%
%TO.N,Net-(J3-Pin_3)*%
X96520000Y-110490000D03*
%TO.P,J3,4,Pin_4*%
%TO.N,Net-(J3-Pin_4)*%
X96520000Y-105410000D03*
%TO.P,J3,5,Pin_5*%
%TO.N,Net-(J3-Pin_5)*%
X96520000Y-100330000D03*
%TO.P,J3,6,Pin_6*%
%TO.N,Net-(J3-Pin_6)*%
X96520000Y-95250000D03*
%TD*%
D22*
%TO.N,Net-(D1-K)*%
X166370000Y-73660000D02*
X173990000Y-81280000D01*
X173990000Y-81280000D02*
X176530000Y-81280000D01*
X176530000Y-81280000D02*
X181610000Y-86360000D01*
%TO.N,Net-(D4-K)*%
X127000000Y-55880000D02*
X133250000Y-62130000D01*
X127000000Y-52070000D02*
X127000000Y-55880000D01*
X133250000Y-62130000D02*
X135790000Y-62130000D01*
X135790000Y-62130000D02*
X135890000Y-62230000D01*
X135890000Y-68580000D02*
X140970000Y-73660000D01*
X120650000Y-52070000D02*
X120650000Y-51265000D01*
X125850000Y-50920000D02*
X127000000Y-52070000D01*
X120650000Y-51265000D02*
X120995000Y-50920000D01*
X135890000Y-62230000D02*
X135890000Y-68580000D01*
X120995000Y-50920000D02*
X125850000Y-50920000D01*
%TO.N,Net-(D5-K)*%
X133420000Y-69750000D02*
X135790000Y-69750000D01*
X135890000Y-71120000D02*
X140970000Y-76200000D01*
X120650000Y-59520000D02*
X120650000Y-58715000D01*
X120995000Y-58370000D02*
X125850000Y-58370000D01*
X125850000Y-58370000D02*
X127000000Y-59520000D01*
X135790000Y-69750000D02*
X135890000Y-69850000D01*
X120650000Y-58715000D02*
X120995000Y-58370000D01*
X127000000Y-59520000D02*
X127000000Y-63330000D01*
X127000000Y-63330000D02*
X133420000Y-69750000D01*
X135890000Y-69850000D02*
X135890000Y-71120000D01*
%TO.N,Net-(D6-K)*%
X120995000Y-65990000D02*
X125850000Y-65990000D01*
X127000000Y-67140000D02*
X127000000Y-70950000D01*
X120650000Y-66335000D02*
X120995000Y-65990000D01*
X135890000Y-77470000D02*
X137160000Y-78740000D01*
X137160000Y-78740000D02*
X140970000Y-78740000D01*
X125850000Y-65990000D02*
X127000000Y-67140000D01*
X133520000Y-77470000D02*
X135890000Y-77470000D01*
X120650000Y-67140000D02*
X120650000Y-66335000D01*
X127000000Y-70950000D02*
X133520000Y-77470000D01*
%TO.N,Net-(D7-K)*%
X127000000Y-74930000D02*
X127000000Y-78740000D01*
X120650000Y-74125000D02*
X120995000Y-73780000D01*
X120650000Y-74930000D02*
X120650000Y-74125000D01*
X125850000Y-73780000D02*
X127000000Y-74930000D01*
X120995000Y-73780000D02*
X125850000Y-73780000D01*
X127000000Y-78740000D02*
X129540000Y-81280000D01*
X129540000Y-81280000D02*
X140970000Y-81280000D01*
%TO.N,Net-(D8-K)*%
X120650000Y-81745000D02*
X120995000Y-81400000D01*
X127000000Y-82550000D02*
X127000000Y-86360000D01*
X127000000Y-86360000D02*
X129540000Y-88900000D01*
X129540000Y-88900000D02*
X135890000Y-88900000D01*
X135890000Y-88900000D02*
X140970000Y-93980000D01*
X120650000Y-82550000D02*
X120650000Y-81745000D01*
X120995000Y-81400000D02*
X125850000Y-81400000D01*
X125850000Y-81400000D02*
X127000000Y-82550000D01*
%TO.N,Net-(D9-K)*%
X129540000Y-96520000D02*
X135890000Y-96520000D01*
X120650000Y-90170000D02*
X120650000Y-89365000D01*
X127000000Y-93980000D02*
X129540000Y-96520000D01*
X120995000Y-89020000D02*
X125850000Y-89020000D01*
X125850000Y-89020000D02*
X127000000Y-90170000D01*
X127000000Y-90170000D02*
X127000000Y-93980000D01*
X120650000Y-89365000D02*
X120995000Y-89020000D01*
X135890000Y-96520000D02*
X140970000Y-101600000D01*
D23*
%TO.N,3V3*%
X188390000Y-63930000D02*
X191770000Y-67310000D01*
X145620000Y-63930000D02*
X188390000Y-63930000D01*
X140970000Y-68580000D02*
X145620000Y-63930000D01*
D22*
%TO.N,Net-(J2-Pin_1)*%
X179383920Y-110490000D02*
X190070000Y-99803920D01*
X190070000Y-90600000D02*
X191770000Y-88900000D01*
X190070000Y-99803920D02*
X190070000Y-90600000D01*
X177800000Y-110490000D02*
X179383920Y-110490000D01*
%TO.N,Net-(J2-Pin_3)*%
X177800000Y-123190000D02*
X179383920Y-123190000D01*
X181460000Y-121113920D02*
X181460000Y-109370000D01*
X179383920Y-123190000D02*
X181460000Y-121113920D01*
X181460000Y-109370000D02*
X191770000Y-99060000D01*
D23*
%TO.N,Net-(J3-Pin_2)*%
X96520000Y-115570000D02*
X108285000Y-115570000D01*
X108285000Y-115570000D02*
X120705000Y-127990000D01*
X120705000Y-127990000D02*
X120705000Y-128656167D01*
%TO.N,Net-(J3-Pin_1)*%
X96520000Y-120650000D02*
X105745000Y-120650000D01*
X105745000Y-120650000D02*
X120705000Y-135610000D01*
X120705000Y-135610000D02*
X120705000Y-136276167D01*
D22*
%TO.N,Net-(Q1-B)*%
X123190000Y-99060000D02*
X127000000Y-102870000D01*
X121920000Y-99060000D02*
X123190000Y-99060000D01*
X130810000Y-102870000D02*
X134620000Y-99060000D01*
X127000000Y-102870000D02*
X130810000Y-102870000D01*
%TO.N,Net-(Q2-B)*%
X130810000Y-110490000D02*
X134620000Y-106680000D01*
X121920000Y-106680000D02*
X123190000Y-106680000D01*
X127000000Y-110490000D02*
X130810000Y-110490000D01*
X123190000Y-106680000D02*
X127000000Y-110490000D01*
%TO.N,Net-(Q3-B)*%
X130810000Y-118110000D02*
X134620000Y-114300000D01*
X127000000Y-118110000D02*
X130810000Y-118110000D01*
X123190000Y-114300000D02*
X127000000Y-118110000D01*
X121920000Y-114300000D02*
X123190000Y-114300000D01*
%TO.N,Net-(Q4-B)*%
X127000000Y-125730000D02*
X130810000Y-125730000D01*
X121920000Y-121920000D02*
X123190000Y-121920000D01*
X123190000Y-121920000D02*
X127000000Y-125730000D01*
X130810000Y-125730000D02*
X134620000Y-121920000D01*
%TO.N,Net-(Q5-B)*%
X123190000Y-129540000D02*
X127000000Y-133350000D01*
X127000000Y-133350000D02*
X130810000Y-133350000D01*
X121920000Y-129540000D02*
X123190000Y-129540000D01*
X130810000Y-133350000D02*
X134620000Y-129540000D01*
%TO.N,Net-(Q6-B)*%
X130810000Y-140970000D02*
X134620000Y-137160000D01*
X121920000Y-137160000D02*
X123190000Y-137160000D01*
X123190000Y-137160000D02*
X127000000Y-140970000D01*
X127000000Y-140970000D02*
X130810000Y-140970000D01*
D23*
%TO.N,Net-(Q7-B)*%
X114300000Y-52070000D02*
X119325000Y-52070000D01*
%TO.N,Net-(Q8-B)*%
X114300000Y-59520000D02*
X119325000Y-59520000D01*
%TO.N,Net-(Q9-B)*%
X114300000Y-67140000D02*
X119325000Y-67140000D01*
%TO.N,Net-(Q10-B)*%
X114300000Y-74930000D02*
X119325000Y-74930000D01*
%TO.N,Net-(Q11-B)*%
X114300000Y-82550000D02*
X119325000Y-82550000D01*
%TO.N,Net-(Q12-B)*%
X114300000Y-90170000D02*
X119325000Y-90170000D01*
D22*
%TO.N,Net-(U1-GPIO10{slash}ADC1_CH9)*%
X134620000Y-102870000D02*
X135890000Y-104140000D01*
X135890000Y-104140000D02*
X140970000Y-104140000D01*
%TO.N,Net-(U1-GPIO11{slash}ADC2_CH0)*%
X134620000Y-110490000D02*
X138430000Y-106680000D01*
X138430000Y-106680000D02*
X140970000Y-106680000D01*
%TO.N,Net-(U1-GPIO12{slash}ADC2_CH1)*%
X134620000Y-118110000D02*
X135890000Y-116840000D01*
X135890000Y-116840000D02*
X135890000Y-111760000D01*
X138430000Y-109220000D02*
X140970000Y-109220000D01*
X135890000Y-111760000D02*
X138430000Y-109220000D01*
%TO.N,Net-(U1-GPIO13{slash}ADC2_CH2)*%
X137160000Y-115570000D02*
X140970000Y-111760000D01*
X137160000Y-123190000D02*
X137160000Y-115570000D01*
X134620000Y-125730000D02*
X137160000Y-123190000D01*
%TO.N,Net-(U1-GPIO14{slash}ADC2_CH3)*%
X138430000Y-129540000D02*
X138430000Y-116833600D01*
X138430000Y-116833600D02*
X140966320Y-114297280D01*
X134620000Y-133350000D02*
X138430000Y-129540000D01*
%TO.N,Net-(U1-GPIO17{slash}ADC2_CH6)*%
X143510000Y-91440000D02*
X140970000Y-88900000D01*
X143510000Y-132080000D02*
X143510000Y-91440000D01*
X134620000Y-140970000D02*
X143510000Y-132080000D01*
%TO.N,Net-(D2-K)*%
X166370000Y-76200000D02*
X167770000Y-77600000D01*
X173990000Y-91440000D02*
X173990000Y-93980000D01*
X167770000Y-77600000D02*
X167770000Y-85220000D01*
X176530000Y-93980000D02*
X181610000Y-99060000D01*
X167770000Y-85220000D02*
X173990000Y-91440000D01*
X173990000Y-93980000D02*
X176530000Y-93980000D01*
%TO.N,Net-(J1-Pin_2)*%
X191770000Y-120650000D02*
X180340000Y-132080000D01*
X163830000Y-127000000D02*
X163830000Y-88900000D01*
X168910000Y-132080000D02*
X163830000Y-127000000D01*
X163830000Y-88900000D02*
X166370000Y-86360000D01*
X180340000Y-132080000D02*
X168910000Y-132080000D01*
%TO.N,Net-(J1-Pin_1)*%
X170180000Y-130810000D02*
X164970000Y-125600000D01*
X191770000Y-115570000D02*
X191770000Y-118110000D01*
X164970000Y-90300000D02*
X166370000Y-88900000D01*
X179070000Y-130810000D02*
X170180000Y-130810000D01*
X191770000Y-118110000D02*
X179070000Y-130810000D01*
X164970000Y-125600000D02*
X164970000Y-90300000D01*
D23*
%TO.N,Net-(J3-Pin_5)*%
X115905000Y-100330000D02*
X120705000Y-105130000D01*
X120705000Y-105130000D02*
X120705000Y-105796167D01*
X96520000Y-100330000D02*
X115905000Y-100330000D01*
%TO.N,Net-(J3-Pin_3)*%
X110825000Y-110490000D02*
X120705000Y-120370000D01*
X96520000Y-110490000D02*
X110825000Y-110490000D01*
X120705000Y-120370000D02*
X120705000Y-121036167D01*
%TO.N,Net-(J3-Pin_4)*%
X96520000Y-105410000D02*
X113365000Y-105410000D01*
X113365000Y-105410000D02*
X120705000Y-112750000D01*
X120705000Y-112750000D02*
X120705000Y-113416167D01*
%TO.N,Net-(J3-Pin_6)*%
X120705000Y-97510000D02*
X120705000Y-98176167D01*
X119745000Y-96550000D02*
X120705000Y-97510000D01*
X96520000Y-95250000D02*
X97820000Y-96550000D01*
X97820000Y-96550000D02*
X119745000Y-96550000D01*
%TO.N,Net-(J6-Pin_1)*%
X96520000Y-85090000D02*
X101600000Y-90170000D01*
X101600000Y-90170000D02*
X106680000Y-90170000D01*
X106680000Y-90170000D02*
X106680000Y-93980000D01*
%TO.N,Net-(J6-Pin_4)*%
X97790000Y-69850000D02*
X98890000Y-70950000D01*
X96520000Y-69850000D02*
X97790000Y-69850000D01*
X106680000Y-67140000D02*
X106680000Y-70950000D01*
X98890000Y-70950000D02*
X106680000Y-70950000D01*
%TO.N,Net-(J6-Pin_5)*%
X96520000Y-64770000D02*
X97960000Y-63330000D01*
X106680000Y-59520000D02*
X106680000Y-63330000D01*
X97960000Y-63330000D02*
X106680000Y-63330000D01*
%TO.N,Net-(J6-Pin_2)*%
X99060000Y-82550000D02*
X106680000Y-82550000D01*
X106680000Y-82550000D02*
X106680000Y-86360000D01*
X96520000Y-80010000D02*
X99060000Y-82550000D01*
%TO.N,Net-(J6-Pin_3)*%
X106680000Y-74930000D02*
X106680000Y-78740000D01*
X96520000Y-74930000D02*
X106680000Y-74930000D01*
%TO.N,Net-(J6-Pin_6)*%
X100330000Y-55880000D02*
X106680000Y-55880000D01*
X96520000Y-59690000D02*
X100330000Y-55880000D01*
X106680000Y-52070000D02*
X106680000Y-55880000D01*
D22*
%TO.N,Net-(R1-Pad1)*%
X182810000Y-105480000D02*
X180340000Y-107950000D01*
X173990000Y-89742943D02*
X182810000Y-98562943D01*
X173990000Y-86360000D02*
X173990000Y-89742943D01*
X182810000Y-98562943D02*
X182810000Y-105480000D01*
%TO.N,Net-(R2-Pad1)*%
X173990000Y-110490000D02*
X180340000Y-116840000D01*
X173990000Y-99060000D02*
X173990000Y-110490000D01*
X180340000Y-116840000D02*
X180340000Y-120650000D01*
%TD*%
M02*
